<svg id="图层_1" data-name="图层 1" xmlns="http://www.w3.org/2000/svg" xmlns:xlink="http://www.w3.org/1999/xlink" viewBox="0 0 226.77 226.77"><defs><style>.cls-1{fill:url(#未命名的渐变_99);}.cls-2{fill:url(#未命名的渐变_99-2);}.cls-3{fill:url(#未命名的渐变_99-3);}.cls-4{fill:#4b4e4f;}.cls-5{fill:url(#未命名的渐变_99-4);}</style><linearGradient id="未命名的渐变_99" x1="85.68" y1="60.74" x2="148.67" y2="60.74" gradientUnits="userSpaceOnUse"><stop offset="0" stop-color="#ff6f48"/><stop offset="1" stop-color="#ff1717"/></linearGradient><linearGradient id="未命名的渐变_99-2" x1="66.84" y1="90.52" x2="129.83" y2="90.52" xlink:href="#未命名的渐变_99"/><linearGradient id="未命名的渐变_99-3" x1="85.79" y1="119.89" x2="148.79" y2="119.89" xlink:href="#未命名的渐变_99"/><linearGradient id="未命名的渐变_99-4" x1="69.43" y1="170.45" x2="79.88" y2="170.45" xlink:href="#未命名的渐变_99"/></defs><title>画板 53</title><path class="cls-1" d="M133.29,48.39c-5.68,1-7.31,5-10.79,9.07a6.64,6.64,0,0,1-5,2.27h-.59a6.67,6.67,0,0,1-5-2.27c-3.48-4.07-5.1-8.1-10.79-9.07-7.35-1.27-14.61,3.67-15.32,11.09a12.56,12.56,0,0,0,12.5,13.81c8.16,0,9.65-4.12,13.77-9.12a6.69,6.69,0,0,1,5.17-2.45h0a6.69,6.69,0,0,1,5.17,2.45c4.11,5,5.6,9.12,13.76,9.12a12.56,12.56,0,0,0,12.5-13.81C147.9,52.06,140.64,47.12,133.29,48.39Z"/><path class="cls-2" d="M114.45,78.17c-5.69,1-7.31,5-10.79,9.06a6.65,6.65,0,0,1-5,2.28H98a6.61,6.61,0,0,1-5-2.28c-3.48-4.06-5.11-8.09-10.79-9.06C74.87,76.9,67.61,81.84,66.9,89.26a12.56,12.56,0,0,0,12.5,13.81c8.16,0,9.65-4.12,13.76-9.13a6.71,6.71,0,0,1,5.17-2.44h0a6.71,6.71,0,0,1,5.17,2.44c4.12,5,5.61,9.13,13.77,9.13a12.56,12.56,0,0,0,12.5-13.81C129.06,81.84,121.8,76.9,114.45,78.17Z"/><path class="cls-3" d="M133.4,107.54c-5.68,1-7.31,5-10.79,9.07a6.61,6.61,0,0,1-5,2.27H117a6.6,6.6,0,0,1-5-2.27c-3.49-4.07-5.11-8.1-10.79-9.07-7.36-1.26-14.62,3.67-15.33,11.09a12.56,12.56,0,0,0,12.5,13.81c8.16,0,9.65-4.12,13.77-9.12a6.69,6.69,0,0,1,5.17-2.45h0a6.69,6.69,0,0,1,5.17,2.45c4.11,5,5.6,9.12,13.76,9.12a12.57,12.57,0,0,0,12.51-13.81C148,111.21,140.75,106.28,133.4,107.54Z"/><path class="cls-4" d="M109.5,163.25c1.07.88,1.6,2.34,1.6,4.38v11h-4.36v-9.89a4.53,4.53,0,0,0-.34-2,2.39,2.39,0,0,0-2.37-1.25,2.93,2.93,0,0,0-2.94,1.83,6.32,6.32,0,0,0-.42,2.48v8.8H96.42V162.35h4.12v2.37a7.32,7.32,0,0,1,1.54-1.8,5.34,5.34,0,0,1,3.31-1A6.22,6.22,0,0,1,109.5,163.25Z"/><path class="cls-4" d="M69.43,162.32h4.94l11,16.26H80.42Z"/><path class="cls-4" d="M74.37,178.58H69.43l11-16.26h4.94Z"/><path class="cls-4" d="M67.13,160.49H55.49v4.67H66.18V169H55.49v5.66H67.67v4H51v-22H67.13Z"/><path class="cls-4" d="M92.27,160.38H88v-3.92h4.31ZM88,162.32h4.31v16.26H88Z"/><path class="cls-4" d="M171.52,162.1a6.68,6.68,0,0,1,2.81,2.4,8,8,0,0,1,1.29,3.37,20.1,20.1,0,0,1,.14,3.22H163.92a3.87,3.87,0,0,0,1.7,3.43,4.3,4.3,0,0,0,2.34.62,3.57,3.57,0,0,0,2.36-.75,3.53,3.53,0,0,0,.88-1.12h4.34a5.24,5.24,0,0,1-1.58,2.94,7.88,7.88,0,0,1-6.11,2.37,8.82,8.82,0,0,1-5.73-2c-1.66-1.33-2.48-3.5-2.48-6.51,0-2.82.74-5,2.24-6.48a7.84,7.84,0,0,1,5.81-2.25A9.26,9.26,0,0,1,171.52,162.1Zm-6.36,3.67a4.41,4.41,0,0,0-1.14,2.52h7.33a3.58,3.58,0,0,0-1.13-2.57,3.71,3.71,0,0,0-2.53-.88A3.35,3.35,0,0,0,165.16,165.77Z"/><polygon class="cls-5" points="79.88 170.38 74.37 178.58 69.43 178.58 74.91 170.48 69.43 162.32 74.37 162.32 79.88 170.38"/><path class="cls-4" d="M113.78,167.65c0-7,4.5-11.09,9.87-11.09a8.68,8.68,0,0,1,6.22,2.72l-2.24,2.7a5.44,5.44,0,0,0-3.9-1.78c-3.21,0-5.62,2.75-5.62,7.31s2.18,7.4,5.54,7.4a5.89,5.89,0,0,0,4.38-2.09l2.24,2.64a8.6,8.6,0,0,1-6.77,3.12C118.14,178.58,113.78,174.74,113.78,167.65Z"/><path class="cls-4" d="M131.21,170.18c0-5.36,3.7-8.46,7.72-8.46s7.71,3.1,7.71,8.46-3.7,8.4-7.71,8.4S131.21,175.49,131.21,170.18Zm11.13,0c0-3-1.23-5-3.41-5s-3.42,2-3.42,5,1.24,5,3.42,5S142.34,173.19,142.34,170.18Z"/><path class="cls-4" d="M149,162.52h3.44l.29,2.84h.12c1.17-2.09,2.89-3.24,4.56-3.24a4.59,4.59,0,0,1,1.89.34l-.75,3.65a4.82,4.82,0,0,0-1.66-.26c-1.26,0-2.78.83-3.7,3.15v9.58H149Z"/></svg>