<?xml version="1.0"?>
<svg xmlns="http://www.w3.org/2000/svg" xmlns:xlink="http://www.w3.org/1999/xlink" width="27" height="36" viewBox="0 0 27 36">
  <g fill="#fff"><path d="M6.788.081c-.136-.106-.326-.108-.463-.004l-6.172 4.653c-.095.072-.151.183-.152.303-.001.119.053.232.147.306l15.356 12.049c.07.055.152.081.234.081.113 0 .225-.051.301-.147.13-.167.1-.407-.066-.537l-14.963-11.741 5.541-4.176 15.126 11.868c.166.13.405.1.535-.066.129-.167.1-.407-.066-.537l-15.356-12.049z"/><path d="M19.729 29.983c.635-1.348.991-2.854.991-4.442 0-5.74-4.647-10.41-10.358-10.41-.549 0-1.087.044-1.613.126 1.744-2.429 4.584-4.013 7.785-4.013 5.291 0 9.596 4.326 9.596 9.644 0 4.193-2.676 7.769-6.402 9.094zm-9.366 5.203c-5.291 0-9.596-4.326-9.596-9.644 0-3.811 2.21-7.112 5.41-8.677v4.0249999999999995c0 5.74 4.647 10.41 10.358 10.41.549 0 1.087-.044 1.613-.126-1.744 2.429-4.584 4.013-7.785 4.013zm-9.596-29.941l5.41-4.078v14.854c-2.447 1.091-4.397 3.107-5.41 5.604v-16.379zm7.414 10.904c.701-.164 1.432-.252 2.182-.252 5.291 0 9.596 4.326 9.596 9.644 0 1.722-.452 3.339-1.242 4.74-.701.164-1.432.252-2.182.252-5.291 0-9.596-4.326-9.596-9.644 0-1.722.452-3.339 1.242-4.74zm18.712 4.74c0-5.74-4.647-10.41-10.358-10.41-3.744 0-7.03 2.007-8.85 5.006-.253.068-.501.145-.746.232v-15.316c0-.145-.082-.278-.211-.343s-.284-.051-.399.036l-6.172 4.653c-.096.072-.152.186-.152.306v20.489c0 5.74 4.647 10.41 10.358 10.41 3.744 0 7.03-2.007 8.85-5.006 4.418-1.189 7.68-5.247 7.68-10.057z"/></g>
</svg>