<svg xmlns="http://www.w3.org/2000/svg" xmlns:xlink="http://www.w3.org/1999/xlink" viewBox="0 0 2248.49 392.71"><defs><style>.cls-1{fill:#4b4e4f;}.cls-2{fill:url(#未命名的渐变_966);}.cls-3{fill:url(#未命名的渐变_966-2);}.cls-4{fill:url(#未命名的渐变_966-3);}.cls-5{fill:url(#未命名的渐变_966-4);}</style><linearGradient id="未命名的渐变_966" x1="741.74" y1="259.36" x2="900.28" y2="259.36" gradientUnits="userSpaceOnUse"><stop offset="0" stop-color="#03bdff"/><stop offset="0.44" stop-color="#039dff"/><stop offset="1" stop-color="#386ef4"/></linearGradient><linearGradient id="未命名的渐变_966-2" x1="87.83" y1="58.49" x2="381.46" y2="58.49" xlink:href="#未命名的渐变_966"/><linearGradient id="未命名的渐变_966-3" x1="0" y1="197.3" x2="293.63" y2="197.3" xlink:href="#未命名的渐变_966"/><linearGradient id="未命名的渐变_966-4" x1="88.35" y1="334.21" x2="381.98" y2="334.21" xlink:href="#未命名的渐变_966"/></defs><title>资源 1</title><g id="图层_2" data-name="图层 2"><g id="图层_1-2" data-name="图层 1"><path class="cls-1" d="M1946.08,153.52q23.72,19.6,23.72,65V381.15h-64.69V234.27q0-19.05-5.06-29.24-9.24-18.61-35.19-18.61-31.89,0-43.76,27.24-6.16,14.42-6.16,36.78V381.15H1751.8v-241h61.14v35.23q12.13-18.61,23-26.81,19.41-14.62,49.2-14.62Q1922.37,133.91,1946.08,153.52Z"/><path class="cls-1" d="M1338.83,153.52q23.72,19.6,23.72,65V381.15h-64.7V234.27q0-19.05-5-29.24-9.24-18.61-35.19-18.61-31.89,0-43.76,27.24-6.16,14.42-6.16,36.78V381.15h-63.14v-241h61.14v35.23q12.13-18.61,22.94-26.81,19.42-14.62,49.2-14.62Q1315.12,133.91,1338.83,153.52Z"/><path class="cls-1" d="M743.81,139h73.36L980.4,380.45H907Z"/><path class="cls-1" d="M817.17,380.45H743.81L907,139H980.4Z"/><path class="cls-1" d="M709.66,111.72H536.85v69.34H695.48v56.72H536.85v84H717.63v58.7H470.17V53.9H709.66Z"/><path class="cls-1" d="M1018.93,139h64V380.45h-64Zm62.51-56.71a30,30,0,1,1-30-30A30,30,0,0,1,1081.44,82.26Z"/><path class="cls-1" d="M1663.81,351.43q-37,38.11-107,38.11t-107-38.11q-49.63-46.74-49.62-134.7,0-89.71,49.62-134.69,37-38.12,107-38.11t107,38.11q49.41,45,49.41,134.69Q1713.22,304.69,1663.81,351.43Zm-42.64-49.62Q1645,271.9,1645,216.73q0-54.93-23.81-85t-64.36-30q-40.55,0-64.7,29.91T1468,216.73q0,55.17,24.14,85.08t64.7,29.9Q1597.36,331.71,1621.17,301.81Z"/><path class="cls-1" d="M2185.36,143.86q25.28,11.32,41.74,35.72,14.82,21.54,19.24,49.93,2.55,16.65,2.08,47.93H2072.54q1.47,36.33,25.25,50.95,14.48,9.09,34.81,9.09,21.58,0,35.07-11.08,7.34-6,13-16.62h64.46q-2.55,21.5-23.41,43.64-32.45,35.24-90.85,35.23-48.21,0-85.06-29.71T2009,262.26q0-62.74,33.27-96.23t86.35-33.48Q2160.1,132.55,2185.36,143.86Zm-94.45,54.55q-13.38,13.8-16.82,37.37h108.78q-1.73-25.12-16.82-38.15t-37.45-13Q2104.29,184.61,2090.91,198.41Z"/><polygon class="cls-2" points="900.28 258.28 816.71 380.45 741.74 380.45 824.91 259.84 741.74 138.26 816.71 138.26 900.28 258.28"/><path class="cls-3" d="M309.75.92c-26.48,4.55-34.06,23.33-50.3,42.27A30.83,30.83,0,0,1,236,53.79h-2.77a30.83,30.83,0,0,1-23.42-10.6C193.6,24.25,186,5.47,159.54.92,125.28-5,91.44,18,88.11,52.64A58.56,58.56,0,0,0,146.38,117c38,0,45-19.2,64.16-42.52a31.26,31.26,0,0,1,24.11-11.39h0a31.24,31.24,0,0,1,24.1,11.39C277.92,97.79,284.88,117,322.91,117a58.56,58.56,0,0,0,58.27-64.35C377.86,18,344-5,309.75.92Z"/><path class="cls-4" d="M221.92,139.73c-26.48,4.54-34.06,23.33-50.3,42.27a30.83,30.83,0,0,1-23.42,10.6h-2.77A30.83,30.83,0,0,1,122,182c-16.24-18.94-23.82-37.73-50.3-42.27C37.45,133.84,3.6,156.84.28,191.45A58.56,58.56,0,0,0,58.55,255.8c38,0,45-19.2,64.16-42.53a31.24,31.24,0,0,1,24.1-11.38h0a31.25,31.25,0,0,1,24.11,11.38c19.17,23.33,26.13,42.53,64.16,42.53a58.56,58.56,0,0,0,58.27-64.35C290,156.84,256.18,133.84,221.92,139.73Z"/><path class="cls-5" d="M310.26,276.64C283.78,281.19,276.21,300,260,318.91a30.85,30.85,0,0,1-23.43,10.6h-2.76a30.83,30.83,0,0,1-23.42-10.6c-16.24-18.94-23.82-37.72-50.3-42.27-34.27-5.89-68.11,17.11-71.43,51.72a58.56,58.56,0,0,0,58.27,64.35c38,0,45-19.2,64.16-42.52a31.24,31.24,0,0,1,24.1-11.39h0a31.22,31.22,0,0,1,24.1,11.39c19.17,23.32,26.14,42.52,64.16,42.52a58.57,58.57,0,0,0,58.28-64.35C378.37,293.75,344.53,270.75,310.26,276.64Z"/></g></g></svg>