<svg id="图层_1" data-name="图层 1" xmlns="http://www.w3.org/2000/svg" viewBox="0 0 357.17 102.05"><defs><style>.cls-1{fill:#4c7cf4;}.cls-2{fill:#05baff;}.cls-3{fill:#4b4e4f;}.cls-4{fill:#386ef2;}</style></defs><title>画板 36</title><path class="cls-1" d="M45.72,85h0V33.68A16.59,16.59,0,0,1,62.31,17.09h0V68.37A16.58,16.58,0,0,1,45.72,85Z"/><path class="cls-2" d="M70,59.13h0v-42h0A17.74,17.74,0,0,1,87.77,34.83v6.56A17.74,17.74,0,0,1,70,59.13Z"/><path class="cls-3" d="M271,65.46a7.94,7.94,0,0,1-.46-1.67c-.09-.52-.16-1.11-.21-1.78A15.82,15.82,0,0,1,266.64,65a11,11,0,0,1-5.58,1.43,9.56,9.56,0,0,1-6.56-2.28,8.17,8.17,0,0,1-2.59-6.46c0-3.61,1.39-6.23,4.17-7.84a18.48,18.48,0,0,1,6.71-1.89l2.61-.32a11.75,11.75,0,0,0,3-.68,2.3,2.3,0,0,0,1.64-2.18,2.61,2.61,0,0,0-1.25-2.5,7.86,7.86,0,0,0-3.69-.69,4.83,4.83,0,0,0-3.87,1.35,5.64,5.64,0,0,0-1.08,2.7h-7.33A11.33,11.33,0,0,1,255,39.25q3-3.89,10.39-3.88a18.43,18.43,0,0,1,8.52,1.91q3.72,1.92,3.72,7.23V58c0,.94,0,2.07.05,3.4a7.4,7.4,0,0,0,.34,2c.17.52.64,1.78,1.15,2Zm-.91-14.07a.13.13,0,0,0-.19-.11,7,7,0,0,1-1.29.63,11.71,11.71,0,0,1-2,.53l-1.73.32a11.47,11.47,0,0,0-3.49,1.05,3.53,3.53,0,0,0-1.8,3.27,3.42,3.42,0,0,0,1.1,2.84,4.11,4.11,0,0,0,2.67.88,7.9,7.9,0,0,0,4.59-1.46c1.4-1,2.12-2.74,2.18-5.31Z"/><path class="cls-3" d="M210.22,37.76c1.92,1.59,2.88,4.22,2.88,7.91V65.44h-7.86V47.58a8.21,8.21,0,0,0-.62-3.56c-.75-1.51-2.17-2.26-4.28-2.26A5.3,5.3,0,0,0,195,45.07a11.45,11.45,0,0,0-.75,4.47v15.9h-7.68V36.13H194v4.28a13,13,0,0,1,2.79-3.26,9.7,9.7,0,0,1,6-1.78A11.24,11.24,0,0,1,210.22,37.76Z"/><path class="cls-3" d="M137.86,36h8.92l19.85,29.36h-8.92Z"/><path class="cls-3" d="M146.78,65.35h-8.92L157.71,36h8.92Z"/><path class="cls-3" d="M133.71,32.68h-21v8.43H132V48H112.7V58.22h22v7.13H104.59V25.64h29.12Z"/><path class="cls-3" d="M179.11,32.49h-7.79V25.4h7.79ZM171.32,36h7.79V65.35h-7.79Z"/><polygon class="cls-4" points="156.73 50.54 146.78 65.35 137.87 65.35 147.76 50.73 137.87 35.99 146.78 35.99 156.73 50.54"/><path class="cls-3" d="M246.12,48.24q-3.48,2.91-10,2.91h-8.28V65.44h-8.24V25.71H236.7q5.9,0,9.4,3.07t3.51,9.51Q249.61,45.33,246.12,48.24Zm-6.33-14.31a6.72,6.72,0,0,0-4.42-1.32h-7.49v11.7h7.49a6.39,6.39,0,0,0,4.42-1.43,5.86,5.86,0,0,0,1.57-4.53Q241.36,35.25,239.79,33.93Z"/><path class="cls-3" d="M286.44,70.39l1,0a11.74,11.74,0,0,0,2.16-.08,3.84,3.84,0,0,0,1.73-.62,4.2,4.2,0,0,0,1.25-1.91,4.61,4.61,0,0,0,.5-1.78l-10.8-30.68h8.55l6.41,21.68,6.07-21.68h8.17l-10.08,28.9q-2.91,8.36-4.62,10.37c-1.13,1.34-3.4,2-6.8,2h-1.64c-.42,0-1,0-1.87-.09Z"/></svg>