<?xml version="1.0" encoding="UTF-8"?>
<svg width="148px" height="22px" viewBox="0 0 148 22" version="1.1" xmlns="http://www.w3.org/2000/svg" xmlns:xlink="http://www.w3.org/1999/xlink">
    <!-- Generator: Sketch 51.3 (57544) - http://www.bohemiancoding.com/sketch -->
    <title>Group 41</title>
    <desc>Created with Sketch.</desc>
    <defs></defs>
    <g id="导航" stroke="none" stroke-width="1" fill="none" fill-rule="evenodd">
        <g id="Group-41" fill-rule="nonzero">
            <g id="Group-28">
                <path d="M73.3164386,8.36986616 C74.227602,8.36986616 74.9663059,7.63049694 74.9663059,6.71851231 C74.9663059,5.80652769 74.227602,5.06698922 73.3164386,5.06698922 C72.4052747,5.06698922 71.6665708,5.80652769 71.6665708,6.71851231 C71.6665708,7.63049694 72.4052747,8.36986616 73.3164386,8.36986616" id="Fill-1" fill="#3C7AD2"></path>
                <path d="M9.35260807,6.72754922 C9.35260807,3.58899538 7.82515337,0.889933847 6.66324629,0.0111184615 C6.65851212,0.00824153847 6.57431104,-0.0389738463 6.58141233,0.0864261537 C6.58158143,0.0881184616 6.5800597,0.0886261537 6.5800597,0.0901492306 C6.48334683,6.15013384 3.39039482,7.79251847 1.68997289,10.0050415 C-2.23416877,15.1107338 1.41538949,20.7085492 5.13156466,21.7430569 C7.21106049,22.3219954 4.65138188,20.7187031 4.32167891,17.3325646 C3.92316099,13.2397185 9.35260807,10.1157185 9.35260807,6.72754922" id="Fill-3" fill="#D7E2F2"></path>
                <path d="M11.3913898,8.79062463 C11.366028,8.77437847 11.3300143,8.76320922 11.3049907,8.80196306 C11.236683,9.56502463 10.4058315,11.1965785 9.35264188,12.6949477 C5.78069064,17.7774554 7.81622604,20.22724 8.96088713,21.5431785 C9.62536544,22.3070862 8.96088713,21.5431785 10.6219138,20.7625169 C10.7522733,20.7014246 13.8631476,19.0651323 14.2001209,15.3371477 C14.5262733,11.7272862 12.2142946,9.45180922 11.3913898,8.79062463" id="Fill-5" fill="#3C7AD2"></path>
                <path d="M27.7857939,5.08854922 L27.7857939,11.4502723 L21.4683468,11.4502723 L21.4683468,5.91338 C21.4683468,5.45781078 21.0994177,5.08854922 20.6444276,5.08854922 L18.5120102,5.08854922 L18.5120102,20.3166108 C18.5120102,20.77218 18.8811085,21.1414415 19.3362676,21.1414415 L21.4683468,21.1414415 L21.4683468,14.0359492 L27.7857939,14.0359492 L27.7857939,20.3166108 C27.7857939,20.77218 28.1548922,21.1414415 28.6100513,21.1414415 L30.7419615,21.1414415 L30.7419615,5.91338 C30.7419615,5.45781078 30.3732014,5.08854922 29.9180422,5.08854922 L27.7857939,5.08854922 Z" id="Fill-7" fill="#D7E2F2"></path>
                <path d="M40.3225381,9.06917847 L40.3225381,16.6994554 C40.3225381,17.3927938 39.9691639,18.0500862 39.3694426,18.39684 C37.695397,19.3650092 35.9631884,18.1556862 35.9631884,16.5611938 L35.9631884,9.89400922 C35.9631884,9.43844 35.5940902,9.06917847 35.1391001,9.06917847 L32.9983979,9.06917847 L32.9982288,16.8331477 C32.9982288,19.3311631 35.0401892,21.3749631 37.5361252,21.3749631 L38.749601,21.3749631 C41.2453683,21.3749631 43.2874976,19.3311631 43.2874976,16.8329785 L43.2874976,9.89400922 C43.2874976,9.43844 42.9185684,9.06917847 42.4634094,9.06917847 L40.3225381,9.06917847 Z" id="Fill-9" fill="#D7E2F2"></path>
                <path d="M72.6624262,21.1414246 L74.7945054,21.1414246 L74.7945054,10.3358708 C74.7945054,9.88047078 74.4257451,9.51104 73.9705861,9.51104 L71.8383376,9.51104 L71.8383376,20.3165938 C71.8383376,20.7721631 72.2072668,21.1414246 72.6624262,21.1414246" id="Fill-11" fill="#3C7AD2"></path>
                <path d="M53.5948579,16.2657846 C53.5948579,17.7338615 52.3947391,18.711 50.9281525,18.711 C49.461397,18.711 48.2614475,17.7338615 48.2614475,16.2657846 L48.2614475,14.1708769 C48.2614475,12.7029692 49.461397,11.7256615 50.9281525,11.7256615 C52.3947391,11.7256615 53.5948579,12.7029692 53.5948579,14.1708769 L53.5948579,16.2657846 Z M50.9281525,9.06163078 C47.827254,9.06163078 45.2898936,11.2819385 45.2898936,14.3856308 L45.2898936,16.0644 C45.2898936,19.1680923 47.827254,21.3750308 50.9281525,21.3750308 C54.0290514,21.3750308 56.5662426,19.1680923 56.5662426,16.0644 L56.5662426,14.3856308 C56.5662426,11.2819385 54.0290514,9.06163078 50.9281525,9.06163078 Z" id="Fill-13" fill="#D7E2F2"></path>
                <path d="M66.8726391,16.2657846 C66.8726391,17.7338615 65.6726891,18.711 64.2059337,18.711 C62.7393475,18.711 61.5393975,17.7338615 61.5393975,16.2657846 L61.5393975,14.1708769 C61.5393975,12.7029692 62.7393475,11.7256615 64.2059337,11.7256615 C65.6726891,11.7256615 66.8726391,12.7029692 66.8726391,14.1708769 L66.8726391,16.2657846 Z M64.2061029,9.06163078 L64.2059337,9.06163078 C63.2369451,9.06163078 62.3227381,9.27841537 61.5241806,9.67136922 L61.5241806,5.92916922 C61.5241806,5.47376922 61.1550822,5.10450769 60.7000921,5.10450769 L58.567844,5.10450769 L58.567844,16.0644 C58.567844,19.1680923 61.1050351,21.3750308 64.2059337,21.3750308 L64.2061029,21.3750308 C67.3068326,21.3750308 69.8441926,19.1680923 69.8441926,16.0644 L69.8441926,14.3856308 C69.8441926,11.2819385 67.3068326,9.06163078 64.2061029,9.06163078 Z" id="Fill-15" fill="#3C7AD2"></path>
                <path d="M125.326896,16.2436492 C125.326896,17.7117262 124.126777,18.6888646 122.660191,18.6888646 C121.193604,18.6888646 119.993486,17.7117262 119.993486,16.2436492 L119.993486,14.1487415 C119.993486,12.6808338 121.193604,11.7035262 122.660191,11.7035262 C124.126777,11.7035262 125.326896,12.6808338 125.326896,14.1487415 L125.326896,16.2436492 Z M122.66036,9.03949537 L122.660191,9.03949537 C121.691033,9.03949537 120.777164,9.25628 119.978438,9.64923384 L119.978438,5.90703384 C119.978438,5.45163384 119.609508,5.08237231 119.15418,5.08237231 L117.022101,5.08237231 L117.022101,16.0422646 C117.022101,19.1459569 119.559292,21.3528954 122.660191,21.3528954 L122.66036,21.3528954 C125.76109,21.3528954 128.298281,19.1459569 128.298281,16.0422646 L128.298281,14.3634954 C128.298281,11.2598031 125.76109,9.03949537 122.66036,9.03949537 Z" id="Fill-17" fill="#D7E2F2"></path>
                <path d="M94.8736189,11.6422646 L89.0933342,11.6422646 L89.0933342,13.2186492 C89.0933342,13.6924954 89.4771421,14.0766492 89.9505619,14.0766492 L92.6960579,14.0766492 L92.6960579,15.4702646 C92.6960579,16.4985108 92.4395658,17.2575108 91.9095049,17.79228 C91.2585529,18.4649723 90.3578718,18.8203569 89.3050203,18.8203569 C88.3566594,18.8203569 87.4534425,18.4915415 86.8900728,17.9412031 C86.1069015,17.1727262 85.9379921,16.3384185 85.9379921,13.2409877 C85.9379921,10.1614954 86.1069015,9.33091078 86.8897347,8.56328 C87.467645,7.99872616 88.594891,7.57158769 89.5293876,7.57158769 C92.6889564,7.57158769 93.7500926,8.69409537 94.5418871,9.71608 C94.5537227,9.71489537 94.6453633,9.71608 94.6453633,9.71608 L94.6453633,7.43061847 C94.6453633,7.09283384 94.4842312,6.77704922 94.220807,6.56618769 C92.8969228,5.50578769 91.5774347,5.11808 89.3050203,5.11808 C87.4701812,5.11808 85.900795,5.69532616 84.6414986,6.83357231 C82.9025268,8.40521847 82.9028649,10.1784185 82.903203,13.1159262 L82.903203,13.3660492 C82.9028649,16.3037262 82.9025268,18.0769262 84.6414986,19.6485723 C85.8833798,20.77108 87.49605,21.3642338 89.3050203,21.3642338 C91.2054623,21.3642338 92.8779861,20.7240338 94.1423549,19.5130185 L94.1425238,19.5128492 C95.2706153,18.4284185 95.7306777,16.3516185 95.7306777,14.1924031 L95.7306777,12.5000954 C95.7306777,12.0264185 95.3470386,11.6422646 94.8736189,11.6422646" id="Fill-19" fill="#D7E2F2"></path>
                <path d="M103.424964,21.2875215 L103.424964,19.4102446 C103.424964,18.9658446 103.065503,18.60606 102.621503,18.6075831 C102.172262,18.6091062 101.608893,18.6107985 101.13243,18.6107985 C99.9187846,18.6107985 99.975595,18.0034292 99.975595,16.4290754 L99.975595,9.00610616 L99.975595,5.88904463 C99.975595,5.44582922 99.6166415,5.08655231 99.1736559,5.08655231 L96.9867951,5.08655231 L96.9867951,16.78886 C96.9867951,19.6229677 97.7167069,21.2875215 100.772969,21.2875215 C101.953982,21.2875215 102.810533,21.2540138 103.424795,21.28786 C103.424795,21.28786 103.424964,21.2875215 103.424964,21.2875215" id="Fill-23" fill="#D7E2F2"></path>
                <path d="M147.893255,21.3442815 L147.893255,19.4670046 C147.893255,19.0226046 147.533795,18.66282 147.089795,18.6643431 C146.640553,18.6658662 146.077184,18.6675585 145.60072,18.6675585 C144.387075,18.6675585 144.443886,18.0601892 144.443886,16.4858354 L144.443886,9.06286616 L144.443886,5.94580463 C144.443886,5.50258922 144.084932,5.14331231 143.641947,5.14331231 L141.455086,5.14331231 L141.455086,16.84562 C141.455086,19.6797277 142.184829,21.3442815 145.24126,21.3442815 C146.422273,21.3442815 147.278824,21.3107738 147.893086,21.3444508 C147.893255,21.3444508 147.893255,21.3442815 147.893255,21.3442815" id="Fill-28" fill="#D7E2F2"></path>
                <path d="M112.809968,16.2186877 C112.809968,17.6867646 111.609849,18.6640723 110.143262,18.6640723 C108.676676,18.6640723 107.476557,17.6867646 107.476557,16.2186877 L107.476557,14.12378 C107.476557,12.6558723 108.676676,11.6785646 110.143262,11.6785646 C111.609849,11.6785646 112.809968,12.6558723 112.809968,14.12378 L112.809968,16.2186877 Z M110.143432,9.01453384 L110.143262,9.01453384 C107.042364,9.01453384 104.505173,11.2348415 104.505173,14.3385338 L104.505173,16.0173031 C104.505173,19.1209954 107.042364,21.3279338 110.143262,21.3279338 L110.143432,21.3279338 C113.244161,21.3279338 115.781352,19.1209954 115.781352,16.0173031 L115.781352,14.3385338 C115.781352,11.2348415 113.244161,9.01453384 110.143432,9.01453384 Z" id="Fill-30" fill="#D7E2F2"></path>
                <path d="M137.010149,15.7959492 L137.010149,18.8854262 C136.779695,18.9302723 136.524894,18.9656415 136.249127,18.9910262 C135.572813,19.0548262 134.966159,19.0665031 134.262455,19.0021954 C133.987196,18.9773185 133.732732,18.9070877 133.506336,18.7947185 C133.287887,18.6857338 133.109002,18.5310569 132.960382,18.3208723 C132.819033,18.1218569 132.747512,17.8279031 132.747512,17.4471338 C132.747512,16.8543185 132.958691,16.4295492 133.393561,16.1486262 C133.856498,15.8492569 134.557835,15.6974569 135.47796,15.6974569 C135.726336,15.6974569 136.02848,15.7116723 136.38608,15.7399338 C136.619916,15.7587185 136.82839,15.7773338 137.010149,15.7959492 M138.609293,10.1026877 C137.723322,9.39462616 136.428181,9.03551847 134.758869,9.03551847 C134.138352,9.03551847 133.486047,9.08070306 132.819878,9.16988769 C132.28559,9.24113384 131.529471,9.34334922 131.00499,9.46434922 C130.792458,9.51325694 130.753401,9.68045694 130.753401,9.88099537 L130.753401,11.4780262 C130.753401,11.7626723 130.756445,12.0215954 131.057404,11.9481492 C131.618914,11.8112415 132.708793,11.5694108 133.004511,11.5205031 C133.472521,11.4436723 133.982292,11.4047492 134.518947,11.4047492 C135.35504,11.4047492 135.992466,11.5545185 136.413809,11.8488108 C136.809453,12.12618 137.010149,12.65418 137.010149,13.4177492 L137.010149,13.5103185 C136.861529,13.4964415 136.69803,13.4834108 136.519652,13.4713954 C136.18623,13.4490569 135.759138,13.43738 135.238376,13.43738 C134.527063,13.43738 133.838068,13.5181031 133.191005,13.6773492 C132.534304,13.8394723 131.943713,14.0897646 131.435633,14.4223031 C130.918929,14.7611031 130.504179,15.1914569 130.203727,15.7018569 C129.900231,16.2161492 129.746708,16.8184415 129.746708,17.4913031 C129.746708,18.1744877 129.878082,18.7693338 130.137617,19.2589185 C130.398844,19.7527338 130.775043,20.1646415 131.254211,20.4826262 C131.72594,20.79638 132.305203,21.0260262 132.975092,21.1654723 C133.626044,21.3010262 134.363395,21.3697338 135.166349,21.3697338 C135.751022,21.3697338 139.962766,21.3103338 139.962766,19.3041031 L139.962766,13.5050723 C139.962766,11.9660877 139.507438,10.8214108 138.609293,10.1026877" id="Fill-32" fill="#D7E2F2"></path>
            </g>
        </g>
    </g>
</svg>