<?xml version="1.0" encoding="UTF-8"?>
<svg width="654px" height="212px" viewBox="0 0 654 212" version="1.1" xmlns="http://www.w3.org/2000/svg" xmlns:xlink="http://www.w3.org/1999/xlink">
    <!-- Generator: Sketch 47.1 (45422) - http://www.bohemiancoding.com/sketch -->
    <title>OKEx logo &amp; Subtitle</title>
    <desc>Created with Sketch.</desc>
    <defs></defs>
    <g id="Navigation" stroke="none" stroke-width="1" fill="none" fill-rule="evenodd">
        <g id="OKEx-logo-&amp;-Subtitle" transform="translate(-80.000000, -80.000000)">
            <g transform="translate(80.000000, 80.000000)">
                <g id="OKEx-logo">
                    <path d="M336.7,105.8 C336.7,112.9 335.6,119.6 333.3,125.8 C331,132.1 327.8,137.5 323.5,142.2 C319.2,146.9 314,150.6 307.7,153.4 C301.4,156.2 294.3,157.5 286.3,157.5 C278.3,157.5 271.2,156.1 264.9,153.4 C258.6,150.6 253.4,146.9 249.1,142.2 C244.8,137.5 241.5,132 239.3,125.8 C237.1,119.5 236,112.9 236,105.8 C236,98.8 237.1,92.1 239.3,85.8 C241.5,79.5 244.8,74 249.1,69.3 C253.4,64.6 258.7,60.9 264.9,58.1 C271.2,55.3 278.3,54 286.3,54 C294.3,54 301.4,55.4 307.7,58.1 C314,60.9 319.2,64.6 323.5,69.3 C327.8,74 331,79.5 333.3,85.8 C335.6,92.1 336.7,98.8 336.7,105.8 Z M286.4,141.1 C291.3,141.1 295.6,140.2 299.2,138.4 C302.9,136.6 305.9,134.1 308.4,131 C310.9,127.8 312.7,124.1 313.9,119.8 C315.1,115.5 315.7,110.8 315.7,105.8 C315.7,100.8 315.1,96.1 313.9,91.8 C312.7,87.5 310.9,83.8 308.4,80.6 C305.9,77.4 302.9,75 299.2,73.2 C295.5,71.4 291.3,70.5 286.4,70.5 C281.5,70.5 277.2,71.4 273.6,73.2 C269.9,75 266.9,77.5 264.4,80.6 C261.9,83.8 260.1,87.5 258.9,91.8 C257.7,96.1 257.1,100.8 257.1,105.8 C257.1,110.8 257.7,115.5 258.9,119.8 C260.1,124.1 261.9,127.8 264.4,131 C266.9,134.2 269.9,136.6 273.6,138.4 C277.2,140.2 281.5,141.1 286.4,141.1 Z M349.9,155.8 L349.9,55.8 L370.9,55.8 L370.9,103.8 L405.6,55.8 L429.9,55.8 L393.1,105.2 L432.4,155.8 L406.4,155.8 L370.8,106.7 L370.8,155.8 L349.9,155.8 Z M440.8,55.8 L500.9,55.8 L500.9,72.5 L461.9,72.5 L461.9,96.7 L499.1,96.7 L499.1,113.3 L461.9,113.3 L461.9,139.1 L501.4,139.1 L501.4,155.8 L440.9,155.8 L440.9,55.8 L440.8,55.8 Z M575.8,55.8 L598.6,55.8 L565.7,105.5 L599.2,155.8 L576.2,155.8 L554.6,121.7 L533,155.8 L510,155.8 L543.5,105.5 L510.6,55.8 L533.4,55.8 L554.6,89.6 L575.8,55.8 Z" id="Text" fill="#1A1A1A" fill-rule="nonzero"></path>
                    <g id="Path-raw">
                        <circle id="Oval" fill="#88BDF3" cx="106" cy="48" r="48"></circle>
                        <circle id="Oval-Copy" fill="#3075EE" cx="106" cy="164" r="48"></circle>
                        <circle id="Oval-Copy-2" fill="#5795F1" cx="164" cy="106" r="48"></circle>
                        <circle id="Oval-Copy-3" fill="#205FEC" cx="48" cy="106" r="48"></circle>
                        <path d="M94.6502972,94.6502972 C77.2572186,90.4335533 63.5664467,76.7427814 59.3497028,59.3497028 C76.7427814,63.5664467 90.4335533,77.2572186 94.6502972,94.6502972 Z" id="Combined-Shape" fill="#134BEF"></path>
                        <path d="M59.3497028,152.650297 C63.5664467,135.257219 77.2572186,121.566447 94.6502972,117.349703 C90.4335533,134.742781 76.7427814,148.433553 59.3497028,152.650297 Z" id="Combined-Shape" fill="#0932E8"></path>
                        <path d="M117.349703,117.349703 C134.742781,121.566447 148.433553,135.257219 152.650297,152.650297 C135.257219,148.433553 121.566447,134.742781 117.349703,117.349703 Z" id="Combined-Shape" fill="#164BEA"></path>
                        <path d="M152.650297,59.3497028 C148.433553,76.7427814 134.742781,90.4335533 117.349703,94.6502972 C121.566447,77.2572186 135.257219,63.5664467 152.650297,59.3497028 Z" id="Combined-Shape" fill="#3170F1"></path>
                    </g>
                </g>
                <rect id="lien" fill-opacity="0.2" fill="#000000" x="650" y="46" width="4" height="120"></rect>
            </g>
        </g>
    </g>
</svg>