<svg id="图层_1" data-name="图层 1" xmlns="http://www.w3.org/2000/svg" xmlns:xlink="http://www.w3.org/1999/xlink" viewBox="0 0 357.17 102.05"><defs><style>.cls-1{fill:#4b4e4f;}.cls-2{fill:#386ef2;}.cls-3{fill:url(#未命名的渐变_966);}.cls-4{fill:url(#未命名的渐变_966-2);}.cls-5{fill:url(#未命名的渐变_966-3);}</style><linearGradient id="未命名的渐变_966" x1="51.05" y1="30.34" x2="92.15" y2="30.34" gradientUnits="userSpaceOnUse"><stop offset="0" stop-color="#03bdff"/><stop offset="0.44" stop-color="#039dff"/><stop offset="1" stop-color="#386ef4"/></linearGradient><linearGradient id="未命名的渐变_966-2" x1="38.75" y1="49.77" x2="79.85" y2="49.77" xlink:href="#未命名的渐变_966"/><linearGradient id="未命名的渐变_966-3" x1="51.12" y1="68.93" x2="92.22" y2="68.93" xlink:href="#未命名的渐变_966"/></defs><title>画板 26</title><path class="cls-1" d="M286.3,42.47c1.89,1.57,2.83,4.15,2.83,7.77V69.66h-7.72V52.12a8.08,8.08,0,0,0-.6-3.49q-1.11-2.24-4.21-2.23a5.2,5.2,0,0,0-5.22,3.26,11.22,11.22,0,0,0-.74,4.39V69.66H263.1V40.87h7.3v4.21a12.85,12.85,0,0,1,2.74-3.2A9.55,9.55,0,0,1,279,40.13,11,11,0,0,1,286.3,42.47Z"/><path class="cls-1" d="M213.79,42.47c1.89,1.57,2.83,4.15,2.83,7.77V69.66H208.9V52.12a7.91,7.91,0,0,0-.61-3.49q-1.09-2.24-4.2-2.23a5.2,5.2,0,0,0-5.22,3.26,11,11,0,0,0-.74,4.39V69.66h-7.54V40.87h7.3v4.21a12.85,12.85,0,0,1,2.74-3.2,9.53,9.53,0,0,1,5.88-1.75A11.06,11.06,0,0,1,213.79,42.47Z"/><path class="cls-1" d="M142.74,40.74h8.76L171,69.57h-8.76Z"/><path class="cls-1" d="M151.5,69.57h-8.76l19.49-28.83H171Z"/><path class="cls-1" d="M138.66,37.48H118v8.28h19v6.78H118v10h21.59v7H110.06v-39h28.6Z"/><path class="cls-1" d="M183.24,37.3h-7.65v-7h7.65Zm-7.65,3.44h7.65V69.57h-7.65Z"/><path class="cls-1" d="M252.6,66.11q-4.42,4.55-12.78,4.55c-5.58,0-9.83-1.52-12.78-4.55q-5.92-5.58-5.93-16.09,0-10.71,5.93-16.08c3-3,7.2-4.55,12.78-4.55s9.83,1.52,12.78,4.55q5.89,5.37,5.9,16.08Q258.5,60.54,252.6,66.11Zm-5.1-5.93q2.85-3.57,2.85-10.16T247.5,39.88a9.28,9.28,0,0,0-7.68-3.59,9.44,9.44,0,0,0-7.73,3.57q-2.88,3.59-2.88,10.16t2.88,10.16a9.44,9.44,0,0,0,7.73,3.57A9.29,9.29,0,0,0,247.5,60.18Z"/><path class="cls-1" d="M314.87,41.32a11.72,11.72,0,0,1,5,4.27,14.16,14.16,0,0,1,2.3,6,37,37,0,0,1,.24,5.72h-21c.12,2.89,1.12,4.92,3,6.09a7.66,7.66,0,0,0,4.15,1.08,6.39,6.39,0,0,0,4.19-1.32,6.32,6.32,0,0,0,1.55-2H322a9.4,9.4,0,0,1-2.79,5.22q-3.89,4.2-10.85,4.2A15.74,15.74,0,0,1,298.21,67q-4.4-3.56-4.4-11.55c0-5,1.32-8.83,4-11.49a13.89,13.89,0,0,1,10.31-4A16.42,16.42,0,0,1,314.87,41.32ZM303.6,47.84a7.74,7.74,0,0,0-2,4.46h13a6.33,6.33,0,0,0-2-4.56,6.63,6.63,0,0,0-4.47-1.55A6,6,0,0,0,303.6,47.84Z"/><polygon class="cls-2" points="161.26 55.03 151.5 69.57 142.74 69.57 152.46 55.21 142.74 40.74 151.5 40.74 161.26 55.03"/><path class="cls-3" d="M82.11,22.28c-3.71.64-4.77,3.27-7,5.92a4.33,4.33,0,0,1-3.28,1.48H71.4a4.33,4.33,0,0,1-3.28-1.48c-2.27-2.65-3.33-5.28-7-5.92-4.79-.82-9.53,2.4-10,7.24a8.2,8.2,0,0,0,8.15,9c5.32,0,6.3-2.69,9-6A4.38,4.38,0,0,1,71.6,31h0A4.37,4.37,0,0,1,75,32.58c2.68,3.26,3.66,6,9,6a8.21,8.21,0,0,0,8.16-9A8.47,8.47,0,0,0,82.11,22.28Z"/><path class="cls-4" d="M69.81,41.71c-3.7.64-4.76,3.27-7,5.92a4.3,4.3,0,0,1-3.27,1.48h-.39a4.32,4.32,0,0,1-3.28-1.48c-2.27-2.65-3.33-5.28-7-5.92a8.47,8.47,0,0,0-10,7.24A8.2,8.2,0,0,0,47,58c5.32,0,6.3-2.69,9-6a4.37,4.37,0,0,1,3.37-1.6h0A4.38,4.38,0,0,1,62.68,52c2.68,3.26,3.65,6,9,6a8.2,8.2,0,0,0,8.15-9C79.35,44.11,74.61,40.89,69.81,41.71Z"/><path class="cls-5" d="M82.18,60.87c-3.71.64-4.77,3.27-7,5.92a4.33,4.33,0,0,1-3.28,1.49h-.39a4.31,4.31,0,0,1-3.27-1.49c-2.28-2.65-3.34-5.28-7-5.92-4.8-.82-9.54,2.4-10,7.24a8.2,8.2,0,0,0,8.15,9c5.33,0,6.3-2.69,9-6a4.37,4.37,0,0,1,3.38-1.59h0A4.36,4.36,0,0,1,75,71.17c2.68,3.26,3.66,6,9,6a8.2,8.2,0,0,0,8.16-9A8.47,8.47,0,0,0,82.18,60.87Z"/></svg>